<svg width="353" height="237" viewBox="0 0 353 237" fill="none" xmlns="http://www.w3.org/2000/svg">
<rect width="353" height="237" rx="16" fill="#BAC9AA"/>
<path d="M33.6193 31.4545V46H31.858V33.3011H31.7727L28.2216 35.6591V33.8693L31.858 31.4545H33.6193ZM71.5526 46V44.7216L76.3537 39.4659C76.9171 38.8504 77.3812 38.3153 77.7457 37.8608C78.1103 37.4015 78.3802 36.9706 78.5554 36.5682C78.7353 36.161 78.8253 35.7348 78.8253 35.2898C78.8253 34.7784 78.7022 34.3357 78.456 33.9616C78.2145 33.5876 77.883 33.2988 77.4616 33.0952C77.0402 32.8916 76.5668 32.7898 76.0412 32.7898C75.4825 32.7898 74.9948 32.9058 74.5781 33.1378C74.1662 33.3651 73.8466 33.6847 73.6193 34.0966C73.3968 34.5085 73.2855 34.9915 73.2855 35.5455H71.6094C71.6094 34.6932 71.8059 33.9451 72.1989 33.3011C72.5919 32.6572 73.1269 32.1553 73.804 31.7955C74.4858 31.4356 75.2505 31.2557 76.098 31.2557C76.9503 31.2557 77.7055 31.4356 78.3636 31.7955C79.0218 32.1553 79.5379 32.6406 79.9119 33.2514C80.286 33.8622 80.473 34.5417 80.473 35.2898C80.473 35.8248 80.3759 36.348 80.1818 36.8594C79.9924 37.366 79.661 37.9318 79.1875 38.5568C78.7188 39.1771 78.0677 39.9347 77.2344 40.8295L73.9673 44.3239V44.4375H80.7287V46H71.5526ZM122.327 46.1989C121.389 46.1989 120.554 46.0379 119.82 45.7159C119.09 45.3939 118.51 44.9465 118.08 44.3736C117.653 43.7959 117.421 43.1259 117.384 42.3636H119.173C119.211 42.8324 119.372 43.2372 119.656 43.5781C119.94 43.9143 120.312 44.1747 120.771 44.3594C121.231 44.544 121.74 44.6364 122.298 44.6364C122.923 44.6364 123.477 44.5275 123.96 44.3097C124.443 44.0919 124.822 43.7888 125.097 43.4006C125.371 43.0123 125.509 42.5625 125.509 42.0511C125.509 41.5161 125.376 41.045 125.111 40.6378C124.846 40.2259 124.457 39.9039 123.946 39.6719C123.435 39.4399 122.81 39.3239 122.071 39.3239H120.906V37.7614H122.071C122.649 37.7614 123.155 37.6572 123.591 37.4489C124.031 37.2405 124.375 36.947 124.621 36.5682C124.872 36.1894 124.997 35.7443 124.997 35.233C124.997 34.7405 124.888 34.312 124.67 33.9474C124.453 33.5829 124.145 33.2988 123.747 33.0952C123.354 32.8916 122.89 32.7898 122.355 32.7898C121.853 32.7898 121.38 32.8821 120.935 33.0668C120.494 33.2467 120.134 33.5095 119.855 33.8551C119.576 34.196 119.424 34.608 119.401 35.0909H117.696C117.724 34.3286 117.954 33.661 118.385 33.0881C118.816 32.5104 119.379 32.0606 120.075 31.7386C120.776 31.4167 121.545 31.2557 122.384 31.2557C123.283 31.2557 124.055 31.438 124.699 31.8026C125.343 32.1624 125.838 32.6383 126.183 33.2301C126.529 33.822 126.702 34.4612 126.702 35.1477C126.702 35.9669 126.486 36.6652 126.055 37.2429C125.629 37.8205 125.049 38.2206 124.315 38.4432V38.5568C125.234 38.7083 125.951 39.099 126.467 39.7287C126.983 40.3537 127.241 41.1278 127.241 42.0511C127.241 42.8419 127.026 43.5521 126.595 44.1818C126.169 44.8068 125.587 45.2992 124.848 45.6591C124.109 46.0189 123.269 46.1989 122.327 46.1989ZM163.555 43.017V41.5682L169.947 31.4545H170.999V33.6989H170.288L165.459 41.3409V41.4545H174.067V43.017H163.555ZM170.402 46V42.5767V41.902V31.4545H172.078V46H170.402ZM215.024 46.1989C214.19 46.1989 213.44 46.0331 212.772 45.7017C212.105 45.3703 211.57 44.9157 211.167 44.3381C210.765 43.7604 210.545 43.1023 210.507 42.3636H212.211C212.278 43.0218 212.576 43.5663 213.106 43.9972C213.641 44.4233 214.28 44.6364 215.024 44.6364C215.62 44.6364 216.151 44.4967 216.615 44.2173C217.083 43.938 217.45 43.5545 217.716 43.0668C217.985 42.5743 218.12 42.018 218.12 41.3977C218.12 40.7633 217.981 40.1974 217.701 39.7003C217.427 39.1984 217.048 38.803 216.565 38.5142C216.082 38.2254 215.53 38.0786 214.91 38.0739C214.465 38.0691 214.008 38.1378 213.539 38.2798C213.071 38.4171 212.685 38.5947 212.382 38.8125L210.734 38.6136L211.615 31.4545H219.172V33.017H213.092L212.581 37.3068H212.666C212.964 37.0701 213.338 36.8736 213.788 36.7173C214.238 36.5611 214.707 36.483 215.194 36.483C216.084 36.483 216.877 36.696 217.574 37.1222C218.274 37.5436 218.824 38.1212 219.221 38.8551C219.624 39.589 219.825 40.4271 219.825 41.3693C219.825 42.2973 219.617 43.1259 219.2 43.8551C218.788 44.5795 218.22 45.1525 217.495 45.5739C216.771 45.9905 215.947 46.1989 215.024 46.1989ZM261.226 46.1989C260.629 46.1894 260.033 46.0758 259.436 45.858C258.839 45.6402 258.295 45.2732 257.803 44.7571C257.31 44.2363 256.915 43.5331 256.616 42.6477C256.318 41.7576 256.169 40.6402 256.169 39.2955C256.169 38.0076 256.29 36.8665 256.531 35.8722C256.773 34.8731 257.123 34.0327 257.582 33.3509C258.042 32.6643 258.596 32.1435 259.244 31.7884C259.898 31.4332 260.634 31.2557 261.453 31.2557C262.268 31.2557 262.992 31.419 263.626 31.7457C264.266 32.0677 264.786 32.5175 265.189 33.0952C265.591 33.6728 265.852 34.3381 265.97 35.0909H264.237C264.076 34.4375 263.764 33.8954 263.3 33.4645C262.836 33.0336 262.22 32.8182 261.453 32.8182C260.326 32.8182 259.438 33.3082 258.79 34.2884C258.146 35.2685 257.821 36.6439 257.817 38.4148H257.93C258.196 38.0123 258.51 37.669 258.875 37.3849C259.244 37.0961 259.652 36.8736 260.097 36.7173C260.542 36.5611 261.013 36.483 261.51 36.483C262.343 36.483 263.106 36.6913 263.797 37.108C264.488 37.5199 265.042 38.0904 265.459 38.8196C265.875 39.544 266.084 40.375 266.084 41.3125C266.084 42.2121 265.883 43.036 265.48 43.7841C265.078 44.5275 264.512 45.1193 263.783 45.5597C263.058 45.9953 262.206 46.2083 261.226 46.1989ZM261.226 44.6364C261.822 44.6364 262.357 44.4872 262.831 44.1889C263.309 43.8906 263.686 43.4905 263.96 42.9886C264.24 42.4867 264.379 41.928 264.379 41.3125C264.379 40.7112 264.244 40.1643 263.974 39.6719C263.709 39.1747 263.342 38.7794 262.874 38.4858C262.41 38.1922 261.879 38.0455 261.283 38.0455C260.833 38.0455 260.414 38.1354 260.026 38.3153C259.637 38.4905 259.296 38.732 259.003 39.0398C258.714 39.3475 258.487 39.7003 258.321 40.098C258.155 40.491 258.072 40.9053 258.072 41.3409C258.072 41.9186 258.207 42.4583 258.477 42.9602C258.752 43.4621 259.126 43.867 259.599 44.1747C260.078 44.4825 260.62 44.6364 261.226 44.6364ZM303.081 46L309.587 33.1307V33.017H302.087V31.4545H311.405V33.1023L304.928 46H303.081ZM33.1648 86.1989C32.1894 86.1989 31.3277 86.026 30.5795 85.6804C29.8362 85.33 29.2562 84.8494 28.8395 84.2386C28.4228 83.6231 28.2169 82.9223 28.2216 82.1364C28.2169 81.5208 28.3376 80.9527 28.5838 80.4318C28.83 79.9062 29.1662 79.4683 29.5923 79.1179C30.0232 78.7628 30.5038 78.5379 31.0341 78.4432V78.358C30.3381 78.178 29.7841 77.7874 29.3722 77.1861C28.9602 76.58 28.7566 75.8911 28.7614 75.1193C28.7566 74.3807 28.9437 73.7202 29.3224 73.1378C29.7012 72.5554 30.2221 72.0961 30.8849 71.7599C31.5526 71.4238 32.3125 71.2557 33.1648 71.2557C34.0076 71.2557 34.7604 71.4238 35.4233 71.7599C36.0862 72.0961 36.607 72.5554 36.9858 73.1378C37.3693 73.7202 37.5634 74.3807 37.5682 75.1193C37.5634 75.8911 37.3527 76.58 36.9361 77.1861C36.5241 77.7874 35.9773 78.178 35.2955 78.358V78.4432C35.821 78.5379 36.2945 78.7628 36.7159 79.1179C37.1373 79.4683 37.4735 79.9062 37.7244 80.4318C37.9754 80.9527 38.1032 81.5208 38.108 82.1364C38.1032 82.9223 37.8902 83.6231 37.4688 84.2386C37.0521 84.8494 36.4721 85.33 35.7287 85.6804C34.9901 86.026 34.1354 86.1989 33.1648 86.1989ZM33.1648 84.6364C33.8229 84.6364 34.3911 84.5298 34.8693 84.3168C35.3475 84.1037 35.7169 83.803 35.9773 83.4148C36.2377 83.0265 36.3703 82.572 36.375 82.0511C36.3703 81.5019 36.2282 81.0166 35.9489 80.5952C35.6695 80.1738 35.2884 79.8423 34.8054 79.6009C34.3272 79.3594 33.7803 79.2386 33.1648 79.2386C32.5445 79.2386 31.9905 79.3594 31.5028 79.6009C31.0199 79.8423 30.6387 80.1738 30.3594 80.5952C30.0848 81.0166 29.9498 81.5019 29.9545 82.0511C29.9498 82.572 30.0753 83.0265 30.331 83.4148C30.5914 83.803 30.9631 84.1037 31.446 84.3168C31.929 84.5298 32.5019 84.6364 33.1648 84.6364ZM33.1648 77.733C33.6856 77.733 34.1473 77.6288 34.5497 77.4205C34.9569 77.2121 35.2765 76.9209 35.5085 76.5469C35.7405 76.1728 35.8589 75.7348 35.8636 75.233C35.8589 74.7405 35.7429 74.312 35.5156 73.9474C35.2884 73.5781 34.9735 73.294 34.571 73.0952C34.1686 72.8916 33.6998 72.7898 33.1648 72.7898C32.6203 72.7898 32.1444 72.8916 31.7372 73.0952C31.33 73.294 31.0152 73.5781 30.7926 73.9474C30.5701 74.312 30.4612 74.7405 30.4659 75.233C30.4612 75.7348 30.5724 76.1728 30.7997 76.5469C31.0317 76.9209 31.3513 77.2121 31.7585 77.4205C32.1657 77.6288 32.6345 77.733 33.1648 77.733ZM79.2106 71.2557C79.8072 71.2604 80.4038 71.3741 81.0004 71.5966C81.5969 71.8191 82.1415 72.1884 82.6339 72.7045C83.1263 73.2159 83.5217 73.9143 83.82 74.7997C84.1183 75.6851 84.2674 76.7955 84.2674 78.1307C84.2674 79.4233 84.1443 80.5715 83.8981 81.5753C83.6566 82.5743 83.3062 83.4171 82.8469 84.1037C82.3924 84.7902 81.8384 85.3111 81.185 85.6662C80.5363 86.0213 79.8024 86.1989 78.9833 86.1989C78.1689 86.1989 77.4421 86.0379 76.8029 85.7159C76.1684 85.3892 75.6476 84.937 75.2404 84.3594C74.8379 83.777 74.5799 83.1023 74.4663 82.3352H76.1992C76.3555 83.0028 76.6656 83.5545 77.1296 83.9901C77.5984 84.4209 78.2163 84.6364 78.9833 84.6364C80.1055 84.6364 80.9909 84.1463 81.6396 83.1662C82.293 82.1861 82.6197 80.8011 82.6197 79.0114H82.506C82.2409 79.4091 81.926 79.7524 81.5614 80.0412C81.1969 80.33 80.792 80.5526 80.3469 80.7088C79.9019 80.8651 79.4284 80.9432 78.9265 80.9432C78.0932 80.9432 77.3285 80.7372 76.6325 80.3253C75.9412 79.9086 75.3872 79.3381 74.9705 78.6136C74.5586 77.8845 74.3526 77.0511 74.3526 76.1136C74.3526 75.2235 74.5515 74.4091 74.9492 73.6705C75.3517 72.9271 75.9151 72.3352 76.6396 71.8949C77.3687 71.4545 78.2257 71.2415 79.2106 71.2557ZM79.2106 72.8182C78.614 72.8182 78.0766 72.9673 77.5984 73.2656C77.1249 73.5592 76.7485 73.9569 76.4691 74.4588C76.1945 74.956 76.0572 75.5076 76.0572 76.1136C76.0572 76.7197 76.1897 77.2713 76.4549 77.7685C76.7248 78.2609 77.0917 78.6539 77.5558 78.9474C78.0245 79.2363 78.5572 79.3807 79.1538 79.3807C79.6036 79.3807 80.0226 79.2931 80.4109 79.1179C80.7991 78.938 81.1377 78.6941 81.4265 78.3864C81.7201 78.0739 81.9497 77.7211 82.1154 77.3281C82.2811 76.9304 82.364 76.5161 82.364 76.0852C82.364 75.517 82.2267 74.9844 81.9521 74.4872C81.6822 73.9901 81.3081 73.5876 80.8299 73.2798C80.3564 72.9721 79.8166 72.8182 79.2106 72.8182ZM120.299 71.4545V86H118.538V73.3011H118.452L114.901 75.6591V73.8693L118.538 71.4545H120.299ZM129.227 86.1989C128.156 86.1989 127.245 85.9077 126.492 85.3253C125.739 84.7382 125.164 83.8883 124.766 82.7756C124.369 81.6581 124.17 80.3087 124.17 78.7273C124.17 77.1553 124.369 75.813 124.766 74.7003C125.169 73.5829 125.746 72.7306 126.499 72.1435C127.257 71.5516 128.166 71.2557 129.227 71.2557C130.287 71.2557 131.194 71.5516 131.947 72.1435C132.704 72.7306 133.282 73.5829 133.68 74.7003C134.082 75.813 134.283 77.1553 134.283 78.7273C134.283 80.3087 134.085 81.6581 133.687 82.7756C133.289 83.8883 132.714 84.7382 131.961 85.3253C131.208 85.9077 130.297 86.1989 129.227 86.1989ZM129.227 84.6364C130.287 84.6364 131.111 84.125 131.698 83.1023C132.285 82.0795 132.579 80.6212 132.579 78.7273C132.579 77.4678 132.444 76.3954 132.174 75.5099C131.909 74.6245 131.525 73.9498 131.023 73.4858C130.526 73.0218 129.927 72.7898 129.227 72.7898C128.175 72.7898 127.354 73.3082 126.762 74.3452C126.17 75.3774 125.874 76.8381 125.874 78.7273C125.874 79.9867 126.007 81.0568 126.272 81.9375C126.537 82.8182 126.918 83.4882 127.415 83.9474C127.917 84.4067 128.521 84.6364 129.227 84.6364ZM164.596 71.4545V86H162.835V73.3011H162.749L159.198 75.6591V73.8693L162.835 71.4545H164.596ZM173.893 71.4545V86H172.131V73.3011H172.046L168.495 75.6591V73.8693L172.131 71.4545H173.893ZM211.315 71.4545V86H209.553V73.3011H209.468L205.917 75.6591V73.8693L209.553 71.4545H211.315ZM215.498 86V84.7216L220.299 79.4659C220.862 78.8504 221.326 78.3153 221.691 77.8608C222.056 77.4015 222.326 76.9706 222.501 76.5682C222.681 76.161 222.771 75.7348 222.771 75.2898C222.771 74.7784 222.647 74.3357 222.401 73.9616C222.16 73.5876 221.828 73.2988 221.407 73.0952C220.986 72.8916 220.512 72.7898 219.987 72.7898C219.428 72.7898 218.94 72.9058 218.523 73.1378C218.112 73.3651 217.792 73.6847 217.565 74.0966C217.342 74.5085 217.231 74.9915 217.231 75.5455H215.555C215.555 74.6932 215.751 73.9451 216.144 73.3011C216.537 72.6572 217.072 72.1553 217.749 71.7955C218.431 71.4356 219.196 71.2557 220.043 71.2557C220.896 71.2557 221.651 71.4356 222.309 71.7955C222.967 72.1553 223.483 72.6406 223.857 73.2514C224.231 73.8622 224.418 74.5417 224.418 75.2898C224.418 75.8248 224.321 76.348 224.127 76.8594C223.938 77.366 223.606 77.9318 223.133 78.5568C222.664 79.1771 222.013 79.9347 221.18 80.8295L217.913 84.3239V84.4375H224.674V86H215.498ZM255.221 71.4545V86H253.46V73.3011H253.374L249.823 75.6591V73.8693L253.46 71.4545H255.221ZM264.319 86.1989C263.381 86.1989 262.546 86.0379 261.812 85.7159C261.083 85.3939 260.503 84.9465 260.072 84.3736C259.646 83.7959 259.414 83.1259 259.376 82.3636H261.165C261.203 82.8324 261.364 83.2372 261.648 83.5781C261.933 83.9143 262.304 84.1747 262.763 84.3594C263.223 84.544 263.732 84.6364 264.29 84.6364C264.915 84.6364 265.469 84.5275 265.952 84.3097C266.435 84.0919 266.814 83.7888 267.089 83.4006C267.363 83.0123 267.501 82.5625 267.501 82.0511C267.501 81.5161 267.368 81.045 267.103 80.6378C266.838 80.2259 266.45 79.9039 265.938 79.6719C265.427 79.4399 264.802 79.3239 264.063 79.3239H262.898V77.7614H264.063C264.641 77.7614 265.147 77.6572 265.583 77.4489C266.023 77.2405 266.367 76.947 266.613 76.5682C266.864 76.1894 266.989 75.7443 266.989 75.233C266.989 74.7405 266.88 74.312 266.663 73.9474C266.445 73.5829 266.137 73.2988 265.739 73.0952C265.346 72.8916 264.882 72.7898 264.347 72.7898C263.845 72.7898 263.372 72.8821 262.927 73.0668C262.487 73.2467 262.127 73.5095 261.847 73.8551C261.568 74.196 261.416 74.608 261.393 75.0909H259.688C259.717 74.3286 259.946 73.661 260.377 73.0881C260.808 72.5104 261.371 72.0606 262.067 71.7386C262.768 71.4167 263.538 71.2557 264.376 71.2557C265.275 71.2557 266.047 71.438 266.691 71.8026C267.335 72.1624 267.83 72.6383 268.175 73.2301C268.521 73.822 268.694 74.4612 268.694 75.1477C268.694 75.9669 268.478 76.6652 268.048 77.2429C267.621 77.8205 267.041 78.2206 266.308 78.4432V78.5568C267.226 78.7083 267.943 79.099 268.46 79.7287C268.976 80.3537 269.234 81.1278 269.234 82.0511C269.234 82.8419 269.018 83.5521 268.587 84.1818C268.161 84.8068 267.579 85.2992 266.84 85.6591C266.102 86.0189 265.261 86.1989 264.319 86.1989ZM299.752 71.4545V86H297.991V73.3011H297.906L294.354 75.6591V73.8693L297.991 71.4545H299.752ZM303.594 83.017V81.5682L309.987 71.4545H311.038V73.6989H310.327L305.498 81.3409V81.4545H314.106V83.017H303.594ZM310.441 86V82.5767V81.902V71.4545H312.117V86H310.441ZM33.6193 111.455V126H31.858V113.301H31.7727L28.2216 115.659V113.869L31.858 111.455H33.6193ZM42.348 126.199C41.5147 126.199 40.7642 126.033 40.0966 125.702C39.429 125.37 38.8939 124.916 38.4915 124.338C38.089 123.76 37.8688 123.102 37.831 122.364H39.5355C39.6018 123.022 39.9001 123.566 40.4304 123.997C40.9654 124.423 41.6046 124.636 42.348 124.636C42.9446 124.636 43.4749 124.497 43.9389 124.217C44.4077 123.938 44.7746 123.554 45.0398 123.067C45.3097 122.574 45.4446 122.018 45.4446 121.398C45.4446 120.763 45.3049 120.197 45.0256 119.7C44.7509 119.198 44.3722 118.803 43.8892 118.514C43.4063 118.225 42.8546 118.079 42.2344 118.074C41.7893 118.069 41.3324 118.138 40.8636 118.28C40.3949 118.417 40.009 118.595 39.706 118.812L38.0582 118.614L38.9389 111.455H46.4957V113.017H40.4162L39.9048 117.307H39.9901C40.2884 117.07 40.6624 116.874 41.1122 116.717C41.562 116.561 42.0308 116.483 42.5185 116.483C43.4086 116.483 44.2017 116.696 44.8977 117.122C45.5985 117.544 46.1477 118.121 46.5455 118.855C46.9479 119.589 47.1491 120.427 47.1491 121.369C47.1491 122.297 46.9408 123.126 46.5241 123.855C46.1122 124.58 45.544 125.152 44.8196 125.574C44.0952 125.991 43.2713 126.199 42.348 126.199ZM77.5842 111.455V126H75.8228V113.301H75.7376L72.1864 115.659V113.869L75.8228 111.455H77.5842ZM86.5969 126.199C86.0004 126.189 85.4038 126.076 84.8072 125.858C84.2106 125.64 83.6661 125.273 83.1737 124.757C82.6812 124.236 82.2859 123.533 81.9876 122.648C81.6893 121.758 81.5401 120.64 81.5401 119.295C81.5401 118.008 81.6609 116.866 81.9023 115.872C82.1438 114.873 82.4942 114.033 82.9535 113.351C83.4128 112.664 83.9667 112.143 84.6154 111.788C85.2688 111.433 86.0051 111.256 86.8242 111.256C87.6386 111.256 88.363 111.419 88.9975 111.746C89.6367 112.068 90.1576 112.518 90.56 113.095C90.9625 113.673 91.2229 114.338 91.3413 115.091H89.6083C89.4473 114.437 89.1348 113.895 88.6708 113.464C88.2068 113.034 87.5913 112.818 86.8242 112.818C85.6973 112.818 84.8095 113.308 84.1609 114.288C83.5169 115.268 83.1926 116.644 83.1879 118.415H83.3015C83.5666 118.012 83.8815 117.669 84.2461 117.385C84.6154 117.096 85.0226 116.874 85.4677 116.717C85.9128 116.561 86.3839 116.483 86.881 116.483C87.7144 116.483 88.4767 116.691 89.168 117.108C89.8593 117.52 90.4132 118.09 90.8299 118.82C91.2466 119.544 91.4549 120.375 91.4549 121.312C91.4549 122.212 91.2537 123.036 90.8512 123.784C90.4487 124.527 89.8829 125.119 89.1538 125.56C88.4293 125.995 87.5771 126.208 86.5969 126.199ZM86.5969 124.636C87.1935 124.636 87.7286 124.487 88.2021 124.189C88.6803 123.891 89.0567 123.491 89.3313 122.989C89.6107 122.487 89.7504 121.928 89.7504 121.312C89.7504 120.711 89.6154 120.164 89.3455 119.672C89.0804 119.175 88.7134 118.779 88.2447 118.486C87.7807 118.192 87.2504 118.045 86.6538 118.045C86.204 118.045 85.7849 118.135 85.3967 118.315C85.0084 118.491 84.6675 118.732 84.3739 119.04C84.0851 119.348 83.8578 119.7 83.6921 120.098C83.5264 120.491 83.4435 120.905 83.4435 121.341C83.4435 121.919 83.5785 122.458 83.8484 122.96C84.123 123.462 84.497 123.867 84.9705 124.175C85.4487 124.482 85.9909 124.636 86.5969 124.636ZM121.862 111.455V126H120.1V113.301H120.015L116.464 115.659V113.869L120.1 111.455H121.862ZM126.499 126L133.005 113.131V113.017H125.505V111.455H134.823V113.102L128.346 126H126.499ZM165.084 111.455V126H163.323V113.301H163.238L159.686 115.659V113.869L163.323 111.455H165.084ZM173.926 126.199C172.951 126.199 172.089 126.026 171.341 125.68C170.598 125.33 170.018 124.849 169.601 124.239C169.185 123.623 168.979 122.922 168.983 122.136C168.979 121.521 169.099 120.953 169.346 120.432C169.592 119.906 169.928 119.468 170.354 119.118C170.785 118.763 171.266 118.538 171.796 118.443V118.358C171.1 118.178 170.546 117.787 170.134 117.186C169.722 116.58 169.518 115.891 169.523 115.119C169.518 114.381 169.705 113.72 170.084 113.138C170.463 112.555 170.984 112.096 171.647 111.76C172.314 111.424 173.074 111.256 173.926 111.256C174.769 111.256 175.522 111.424 176.185 111.76C176.848 112.096 177.369 112.555 177.748 113.138C178.131 113.72 178.325 114.381 178.33 115.119C178.325 115.891 178.114 116.58 177.698 117.186C177.286 117.787 176.739 118.178 176.057 118.358V118.443C176.583 118.538 177.056 118.763 177.478 119.118C177.899 119.468 178.235 119.906 178.486 120.432C178.737 120.953 178.865 121.521 178.87 122.136C178.865 122.922 178.652 123.623 178.23 124.239C177.814 124.849 177.234 125.33 176.49 125.68C175.752 126.026 174.897 126.199 173.926 126.199ZM173.926 124.636C174.585 124.636 175.153 124.53 175.631 124.317C176.109 124.104 176.479 123.803 176.739 123.415C176.999 123.027 177.132 122.572 177.137 122.051C177.132 121.502 176.99 121.017 176.711 120.595C176.431 120.174 176.05 119.842 175.567 119.601C175.089 119.359 174.542 119.239 173.926 119.239C173.306 119.239 172.752 119.359 172.265 119.601C171.782 119.842 171.4 120.174 171.121 120.595C170.846 121.017 170.712 121.502 170.716 122.051C170.712 122.572 170.837 123.027 171.093 123.415C171.353 123.803 171.725 124.104 172.208 124.317C172.691 124.53 173.264 124.636 173.926 124.636ZM173.926 117.733C174.447 117.733 174.909 117.629 175.311 117.42C175.719 117.212 176.038 116.921 176.27 116.547C176.502 116.173 176.621 115.735 176.625 115.233C176.621 114.741 176.505 114.312 176.277 113.947C176.05 113.578 175.735 113.294 175.333 113.095C174.93 112.892 174.462 112.79 173.926 112.79C173.382 112.79 172.906 112.892 172.499 113.095C172.092 113.294 171.777 113.578 171.554 113.947C171.332 114.312 171.223 114.741 171.228 115.233C171.223 115.735 171.334 116.173 171.561 116.547C171.793 116.921 172.113 117.212 172.52 117.42C172.927 117.629 173.396 117.733 173.926 117.733ZM209.205 111.455V126H207.444V113.301H207.359L203.808 115.659V113.869L207.444 111.455H209.205ZM218.019 111.256C218.616 111.26 219.212 111.374 219.809 111.597C220.406 111.819 220.95 112.188 221.442 112.705C221.935 113.216 222.33 113.914 222.629 114.8C222.927 115.685 223.076 116.795 223.076 118.131C223.076 119.423 222.953 120.571 222.707 121.575C222.465 122.574 222.115 123.417 221.656 124.104C221.201 124.79 220.647 125.311 219.994 125.666C219.345 126.021 218.611 126.199 217.792 126.199C216.978 126.199 216.251 126.038 215.612 125.716C214.977 125.389 214.456 124.937 214.049 124.359C213.647 123.777 213.388 123.102 213.275 122.335H215.008C215.164 123.003 215.474 123.554 215.938 123.99C216.407 124.421 217.025 124.636 217.792 124.636C218.914 124.636 219.799 124.146 220.448 123.166C221.102 122.186 221.428 120.801 221.428 119.011H221.315C221.049 119.409 220.735 119.752 220.37 120.041C220.005 120.33 219.601 120.553 219.156 120.709C218.71 120.865 218.237 120.943 217.735 120.943C216.902 120.943 216.137 120.737 215.441 120.325C214.75 119.909 214.196 119.338 213.779 118.614C213.367 117.884 213.161 117.051 213.161 116.114C213.161 115.223 213.36 114.409 213.758 113.67C214.16 112.927 214.724 112.335 215.448 111.895C216.177 111.455 217.034 111.241 218.019 111.256ZM218.019 112.818C217.423 112.818 216.885 112.967 216.407 113.266C215.933 113.559 215.557 113.957 215.278 114.459C215.003 114.956 214.866 115.508 214.866 116.114C214.866 116.72 214.998 117.271 215.263 117.768C215.533 118.261 215.9 118.654 216.364 118.947C216.833 119.236 217.366 119.381 217.962 119.381C218.412 119.381 218.831 119.293 219.219 119.118C219.608 118.938 219.946 118.694 220.235 118.386C220.529 118.074 220.758 117.721 220.924 117.328C221.09 116.93 221.173 116.516 221.173 116.085C221.173 115.517 221.035 114.984 220.761 114.487C220.491 113.99 220.117 113.588 219.638 113.28C219.165 112.972 218.625 112.818 218.019 112.818ZM248.369 126V124.722L253.17 119.466C253.734 118.85 254.198 118.315 254.562 117.861C254.927 117.402 255.197 116.971 255.372 116.568C255.552 116.161 255.642 115.735 255.642 115.29C255.642 114.778 255.519 114.336 255.272 113.962C255.031 113.588 254.699 113.299 254.278 113.095C253.857 112.892 253.383 112.79 252.858 112.79C252.299 112.79 251.811 112.906 251.395 113.138C250.983 113.365 250.663 113.685 250.436 114.097C250.213 114.509 250.102 114.991 250.102 115.545H248.426C248.426 114.693 248.622 113.945 249.015 113.301C249.408 112.657 249.943 112.155 250.62 111.795C251.302 111.436 252.067 111.256 252.914 111.256C253.767 111.256 254.522 111.436 255.18 111.795C255.838 112.155 256.354 112.641 256.728 113.251C257.102 113.862 257.289 114.542 257.289 115.29C257.289 115.825 257.192 116.348 256.998 116.859C256.809 117.366 256.477 117.932 256.004 118.557C255.535 119.177 254.884 119.935 254.051 120.83L250.784 124.324V124.438H257.545V126H248.369ZM265.223 126.199C264.153 126.199 263.241 125.908 262.488 125.325C261.735 124.738 261.16 123.888 260.762 122.776C260.365 121.658 260.166 120.309 260.166 118.727C260.166 117.155 260.365 115.813 260.762 114.7C261.165 113.583 261.743 112.731 262.495 112.143C263.253 111.552 264.162 111.256 265.223 111.256C266.283 111.256 267.19 111.552 267.943 112.143C268.7 112.731 269.278 113.583 269.676 114.7C270.078 115.813 270.279 117.155 270.279 118.727C270.279 120.309 270.081 121.658 269.683 122.776C269.285 123.888 268.71 124.738 267.957 125.325C267.204 125.908 266.293 126.199 265.223 126.199ZM265.223 124.636C266.283 124.636 267.107 124.125 267.694 123.102C268.281 122.08 268.575 120.621 268.575 118.727C268.575 117.468 268.44 116.395 268.17 115.51C267.905 114.625 267.521 113.95 267.02 113.486C266.522 113.022 265.923 112.79 265.223 112.79C264.172 112.79 263.35 113.308 262.758 114.345C262.166 115.377 261.87 116.838 261.87 118.727C261.87 119.987 262.003 121.057 262.268 121.938C262.533 122.818 262.914 123.488 263.412 123.947C263.913 124.407 264.517 124.636 265.223 124.636ZM295.478 126V124.722L300.279 119.466C300.843 118.85 301.307 118.315 301.672 117.861C302.036 117.402 302.306 116.971 302.481 116.568C302.661 116.161 302.751 115.735 302.751 115.29C302.751 114.778 302.628 114.336 302.382 113.962C302.14 113.588 301.809 113.299 301.387 113.095C300.966 112.892 300.493 112.79 299.967 112.79C299.408 112.79 298.921 112.906 298.504 113.138C298.092 113.365 297.772 113.685 297.545 114.097C297.323 114.509 297.211 114.991 297.211 115.545H295.535C295.535 114.693 295.732 113.945 296.125 113.301C296.518 112.657 297.053 112.155 297.73 111.795C298.412 111.436 299.176 111.256 300.024 111.256C300.876 111.256 301.631 111.436 302.289 111.795C302.948 112.155 303.464 112.641 303.838 113.251C304.212 113.862 304.399 114.542 304.399 115.29C304.399 115.825 304.302 116.348 304.108 116.859C303.918 117.366 303.587 117.932 303.113 118.557C302.645 119.177 301.993 119.935 301.16 120.83L297.893 124.324V124.438H304.654V126H295.478ZM312.701 111.455V126H310.94V113.301H310.855L307.304 115.659V113.869L310.94 111.455H312.701ZM28.5057 166V164.722L33.3068 159.466C33.8703 158.85 34.3343 158.315 34.6989 157.861C35.0634 157.402 35.3333 156.971 35.5085 156.568C35.6884 156.161 35.7784 155.735 35.7784 155.29C35.7784 154.778 35.6553 154.336 35.4091 153.962C35.1676 153.588 34.8362 153.299 34.4148 153.095C33.9934 152.892 33.5199 152.79 32.9943 152.79C32.4356 152.79 31.9479 152.906 31.5312 153.138C31.1193 153.365 30.7997 153.685 30.5724 154.097C30.3499 154.509 30.2386 154.991 30.2386 155.545H28.5625C28.5625 154.693 28.759 153.945 29.152 153.301C29.545 152.657 30.08 152.155 30.7571 151.795C31.4389 151.436 32.2036 151.256 33.0511 151.256C33.9034 151.256 34.6586 151.436 35.3168 151.795C35.9749 152.155 36.491 152.641 36.8651 153.251C37.2391 153.862 37.4261 154.542 37.4261 155.29C37.4261 155.825 37.3291 156.348 37.1349 156.859C36.9455 157.366 36.6141 157.932 36.1406 158.557C35.6719 159.177 35.0208 159.935 34.1875 160.83L30.9205 164.324V164.438H37.6818V166H28.5057ZM40.6151 166V164.722L45.4162 159.466C45.9796 158.85 46.4437 158.315 46.8082 157.861C47.1728 157.402 47.4427 156.971 47.6179 156.568C47.7978 156.161 47.8878 155.735 47.8878 155.29C47.8878 154.778 47.7647 154.336 47.5185 153.962C47.277 153.588 46.9455 153.299 46.5241 153.095C46.1027 152.892 45.6293 152.79 45.1037 152.79C44.545 152.79 44.0573 152.906 43.6406 153.138C43.2287 153.365 42.9091 153.685 42.6818 154.097C42.4593 154.509 42.348 154.991 42.348 155.545H40.6719C40.6719 154.693 40.8684 153.945 41.2614 153.301C41.6544 152.657 42.1894 152.155 42.8665 151.795C43.5483 151.436 44.313 151.256 45.1605 151.256C46.0128 151.256 46.768 151.436 47.4261 151.795C48.0843 152.155 48.6004 152.641 48.9744 153.251C49.3485 153.862 49.5355 154.542 49.5355 155.29C49.5355 155.825 49.4384 156.348 49.2443 156.859C49.0549 157.366 48.7235 157.932 48.25 158.557C47.7812 159.177 47.1302 159.935 46.2969 160.83L43.0298 164.324V164.438H49.7912V166H40.6151ZM69.5994 166V164.722L74.4006 159.466C74.964 158.85 75.428 158.315 75.7926 157.861C76.1572 157.402 76.4271 156.971 76.6023 156.568C76.7822 156.161 76.8722 155.735 76.8722 155.29C76.8722 154.778 76.7491 154.336 76.5028 153.962C76.2614 153.588 75.9299 153.299 75.5085 153.095C75.0871 152.892 74.6136 152.79 74.0881 152.79C73.5294 152.79 73.0417 152.906 72.625 153.138C72.2131 153.365 71.8935 153.685 71.6662 154.097C71.4437 154.509 71.3324 154.991 71.3324 155.545H69.6562C69.6562 154.693 69.8527 153.945 70.2457 153.301C70.6387 152.657 71.1738 152.155 71.8509 151.795C72.5327 151.436 73.2973 151.256 74.1449 151.256C74.9972 151.256 75.7524 151.436 76.4105 151.795C77.0687 152.155 77.5848 152.641 77.9588 153.251C78.3329 153.862 78.5199 154.542 78.5199 155.29C78.5199 155.825 78.4228 156.348 78.2287 156.859C78.0393 157.366 77.7079 157.932 77.2344 158.557C76.7656 159.177 76.1146 159.935 75.2812 160.83L72.0142 164.324V164.438H78.7756V166H69.5994ZM86.6236 166.199C85.6861 166.199 84.8504 166.038 84.1165 165.716C83.3873 165.394 82.8073 164.946 82.3764 164.374C81.9503 163.796 81.7183 163.126 81.6804 162.364H83.4702C83.508 162.832 83.669 163.237 83.9531 163.578C84.2372 163.914 84.6089 164.175 85.0682 164.359C85.5275 164.544 86.0365 164.636 86.5952 164.636C87.2202 164.636 87.7741 164.527 88.2571 164.31C88.7401 164.092 89.1188 163.789 89.3935 163.401C89.6681 163.012 89.8054 162.562 89.8054 162.051C89.8054 161.516 89.6728 161.045 89.4077 160.638C89.1425 160.226 88.7543 159.904 88.2429 159.672C87.7315 159.44 87.1065 159.324 86.3679 159.324H85.2031V157.761H86.3679C86.9455 157.761 87.4522 157.657 87.8878 157.449C88.3281 157.241 88.6714 156.947 88.9176 156.568C89.1686 156.189 89.294 155.744 89.294 155.233C89.294 154.741 89.1851 154.312 88.9673 153.947C88.7495 153.583 88.4418 153.299 88.044 153.095C87.651 152.892 87.187 152.79 86.652 152.79C86.1501 152.79 85.6766 152.882 85.2315 153.067C84.7912 153.247 84.4313 153.509 84.152 153.855C83.8726 154.196 83.7211 154.608 83.6974 155.091H81.9929C82.0213 154.329 82.2509 153.661 82.6818 153.088C83.1127 152.51 83.6761 152.061 84.3722 151.739C85.0729 151.417 85.8423 151.256 86.6804 151.256C87.58 151.256 88.3518 151.438 88.9957 151.803C89.6397 152.162 90.1345 152.638 90.4801 153.23C90.8258 153.822 90.9986 154.461 90.9986 155.148C90.9986 155.967 90.7831 156.665 90.3523 157.243C89.9261 157.821 89.3461 158.221 88.6122 158.443V158.557C89.5308 158.708 90.2481 159.099 90.7642 159.729C91.2803 160.354 91.5384 161.128 91.5384 162.051C91.5384 162.842 91.3229 163.552 90.892 164.182C90.4659 164.807 89.8835 165.299 89.1449 165.659C88.4063 166.019 87.5658 166.199 86.6236 166.199ZM116.943 166V164.722L121.744 159.466C122.308 158.85 122.772 158.315 123.136 157.861C123.501 157.402 123.771 156.971 123.946 156.568C124.126 156.161 124.216 155.735 124.216 155.29C124.216 154.778 124.093 154.336 123.847 153.962C123.605 153.588 123.274 153.299 122.852 153.095C122.431 152.892 121.957 152.79 121.432 152.79C120.873 152.79 120.385 152.906 119.969 153.138C119.557 153.365 119.237 153.685 119.01 154.097C118.787 154.509 118.676 154.991 118.676 155.545H117C117 154.693 117.196 153.945 117.589 153.301C117.982 152.657 118.518 152.155 119.195 151.795C119.876 151.436 120.641 151.256 121.489 151.256C122.341 151.256 123.096 151.436 123.754 151.795C124.412 152.155 124.929 152.641 125.303 153.251C125.677 153.862 125.864 154.542 125.864 155.29C125.864 155.825 125.767 156.348 125.572 156.859C125.383 157.366 125.052 157.932 124.578 158.557C124.109 159.177 123.458 159.935 122.625 160.83L119.358 164.324V164.438H126.119V166H116.943ZM128.399 163.017V161.568L134.791 151.455H135.842V153.699H135.132L130.303 161.341V161.455H138.911V163.017H128.399ZM135.246 166V162.577V161.902V151.455H136.922V166H135.246ZM158.447 166V164.722L163.248 159.466C163.812 158.85 164.276 158.315 164.64 157.861C165.005 157.402 165.275 156.971 165.45 156.568C165.63 156.161 165.72 155.735 165.72 155.29C165.72 154.778 165.597 154.336 165.35 153.962C165.109 153.588 164.778 153.299 164.356 153.095C163.935 152.892 163.461 152.79 162.936 152.79C162.377 152.79 161.889 152.906 161.473 153.138C161.061 153.365 160.741 153.685 160.514 154.097C160.291 154.509 160.18 154.991 160.18 155.545H158.504C158.504 154.693 158.7 153.945 159.093 153.301C159.486 152.657 160.021 152.155 160.699 151.795C161.38 151.436 162.145 151.256 162.993 151.256C163.845 151.256 164.6 151.436 165.258 151.795C165.916 152.155 166.432 152.641 166.806 153.251C167.181 153.862 167.368 154.542 167.368 155.29C167.368 155.825 167.27 156.348 167.076 156.859C166.887 157.366 166.556 157.932 166.082 158.557C165.613 159.177 164.962 159.935 164.129 160.83L160.862 164.324V164.438H167.623V166H158.447ZM175.102 166.199C174.269 166.199 173.518 166.033 172.85 165.702C172.183 165.37 171.648 164.916 171.245 164.338C170.843 163.76 170.623 163.102 170.585 162.364H172.289C172.356 163.022 172.654 163.566 173.184 163.997C173.719 164.423 174.359 164.636 175.102 164.636C175.699 164.636 176.229 164.497 176.693 164.217C177.162 163.938 177.529 163.554 177.794 163.067C178.064 162.574 178.199 162.018 178.199 161.398C178.199 160.763 178.059 160.197 177.779 159.7C177.505 159.198 177.126 158.803 176.643 158.514C176.16 158.225 175.609 158.079 174.988 158.074C174.543 158.069 174.086 158.138 173.618 158.28C173.149 158.417 172.763 158.595 172.46 158.812L170.812 158.614L171.693 151.455H179.25V153.017H173.17L172.659 157.307H172.744C173.042 157.07 173.416 156.874 173.866 156.717C174.316 156.561 174.785 156.483 175.272 156.483C176.163 156.483 176.956 156.696 177.652 157.122C178.352 157.544 178.902 158.121 179.299 158.855C179.702 159.589 179.903 160.427 179.903 161.369C179.903 162.297 179.695 163.126 179.278 163.855C178.866 164.58 178.298 165.152 177.574 165.574C176.849 165.991 176.025 166.199 175.102 166.199ZM205.224 166V164.722L210.026 159.466C210.589 158.85 211.053 158.315 211.418 157.861C211.782 157.402 212.052 156.971 212.227 156.568C212.407 156.161 212.497 155.735 212.497 155.29C212.497 154.778 212.374 154.336 212.128 153.962C211.886 153.588 211.555 153.299 211.134 153.095C210.712 152.892 210.239 152.79 209.713 152.79C209.154 152.79 208.667 152.906 208.25 153.138C207.838 153.365 207.518 153.685 207.291 154.097C207.069 154.509 206.957 154.991 206.957 155.545H205.281C205.281 154.693 205.478 153.945 205.871 153.301C206.264 152.657 206.799 152.155 207.476 151.795C208.158 151.436 208.922 151.256 209.77 151.256C210.622 151.256 211.377 151.436 212.036 151.795C212.694 152.155 213.21 152.641 213.584 153.251C213.958 153.862 214.145 154.542 214.145 155.29C214.145 155.825 214.048 156.348 213.854 156.859C213.664 157.366 213.333 157.932 212.859 158.557C212.391 159.177 211.74 159.935 210.906 160.83L207.639 164.324V164.438H214.401V166H205.224ZM222.163 166.199C221.567 166.189 220.97 166.076 220.374 165.858C219.777 165.64 219.232 165.273 218.74 164.757C218.248 164.236 217.852 163.533 217.554 162.648C217.256 161.758 217.107 160.64 217.107 159.295C217.107 158.008 217.227 156.866 217.469 155.872C217.71 154.873 218.061 154.033 218.52 153.351C218.979 152.664 219.533 152.143 220.182 151.788C220.835 151.433 221.571 151.256 222.391 151.256C223.205 151.256 223.929 151.419 224.564 151.746C225.203 152.068 225.724 152.518 226.126 153.095C226.529 153.673 226.789 154.338 226.908 155.091H225.175C225.014 154.437 224.701 153.895 224.237 153.464C223.773 153.034 223.158 152.818 222.391 152.818C221.264 152.818 220.376 153.308 219.727 154.288C219.083 155.268 218.759 156.644 218.754 158.415H218.868C219.133 158.012 219.448 157.669 219.812 157.385C220.182 157.096 220.589 156.874 221.034 156.717C221.479 156.561 221.95 156.483 222.447 156.483C223.281 156.483 224.043 156.691 224.734 157.108C225.426 157.52 225.98 158.09 226.396 158.82C226.813 159.544 227.021 160.375 227.021 161.312C227.021 162.212 226.82 163.036 226.418 163.784C226.015 164.527 225.449 165.119 224.72 165.56C223.996 165.995 223.143 166.208 222.163 166.199ZM222.163 164.636C222.76 164.636 223.295 164.487 223.768 164.189C224.247 163.891 224.623 163.491 224.898 162.989C225.177 162.487 225.317 161.928 225.317 161.312C225.317 160.711 225.182 160.164 224.912 159.672C224.647 159.175 224.28 158.779 223.811 158.486C223.347 158.192 222.817 158.045 222.22 158.045C221.77 158.045 221.351 158.135 220.963 158.315C220.575 158.491 220.234 158.732 219.94 159.04C219.652 159.348 219.424 159.7 219.259 160.098C219.093 160.491 219.01 160.905 219.01 161.341C219.01 161.919 219.145 162.458 219.415 162.96C219.689 163.462 220.063 163.867 220.537 164.175C221.015 164.482 221.557 164.636 222.163 164.636ZM252.314 166V164.722L257.115 159.466C257.679 158.85 258.143 158.315 258.507 157.861C258.872 157.402 259.142 156.971 259.317 156.568C259.497 156.161 259.587 155.735 259.587 155.29C259.587 154.778 259.464 154.336 259.218 153.962C258.976 153.588 258.645 153.299 258.223 153.095C257.802 152.892 257.328 152.79 256.803 152.79C256.244 152.79 255.757 152.906 255.34 153.138C254.928 153.365 254.608 153.685 254.381 154.097C254.158 154.509 254.047 154.991 254.047 155.545H252.371C252.371 154.693 252.568 153.945 252.961 153.301C253.354 152.657 253.889 152.155 254.566 151.795C255.248 151.436 256.012 151.256 256.86 151.256C257.712 151.256 258.467 151.436 259.125 151.795C259.783 152.155 260.3 152.641 260.674 153.251C261.048 153.862 261.235 154.542 261.235 155.29C261.235 155.825 261.138 156.348 260.944 156.859C260.754 157.366 260.423 157.932 259.949 158.557C259.48 159.177 258.829 159.935 257.996 160.83L254.729 164.324V164.438H261.49V166H252.314ZM264.878 166L271.384 153.131V153.017H263.884V151.455H273.202V153.102L266.725 166H264.878ZM292.724 166V164.722L297.526 159.466C298.089 158.85 298.553 158.315 298.918 157.861C299.282 157.402 299.552 156.971 299.727 156.568C299.907 156.161 299.997 155.735 299.997 155.29C299.997 154.778 299.874 154.336 299.628 153.962C299.386 153.588 299.055 153.299 298.634 153.095C298.212 152.892 297.739 152.79 297.213 152.79C296.654 152.79 296.167 152.906 295.75 153.138C295.338 153.365 295.018 153.685 294.791 154.097C294.569 154.509 294.457 154.991 294.457 155.545H292.781C292.781 154.693 292.978 153.945 293.371 153.301C293.764 152.657 294.299 152.155 294.976 151.795C295.658 151.436 296.422 151.256 297.27 151.256C298.122 151.256 298.877 151.436 299.536 151.795C300.194 152.155 300.71 152.641 301.084 153.251C301.458 153.862 301.645 154.542 301.645 155.29C301.645 155.825 301.548 156.348 301.354 156.859C301.164 157.366 300.833 157.932 300.359 158.557C299.891 159.177 299.24 159.935 298.406 160.83L295.139 164.324V164.438H301.901V166H292.724ZM309.493 166.199C308.518 166.199 307.656 166.026 306.908 165.68C306.164 165.33 305.584 164.849 305.168 164.239C304.751 163.623 304.545 162.922 304.55 162.136C304.545 161.521 304.666 160.953 304.912 160.432C305.158 159.906 305.494 159.468 305.92 159.118C306.351 158.763 306.832 158.538 307.362 158.443V158.358C306.666 158.178 306.112 157.787 305.7 157.186C305.288 156.58 305.085 155.891 305.089 155.119C305.085 154.381 305.272 153.72 305.651 153.138C306.029 152.555 306.55 152.096 307.213 151.76C307.881 151.424 308.641 151.256 309.493 151.256C310.336 151.256 311.089 151.424 311.751 151.76C312.414 152.096 312.935 152.555 313.314 153.138C313.697 153.72 313.892 154.381 313.896 155.119C313.892 155.891 313.681 156.58 313.264 157.186C312.852 157.787 312.305 158.178 311.624 158.358V158.443C312.149 158.538 312.623 158.763 313.044 159.118C313.465 159.468 313.802 159.906 314.053 160.432C314.304 160.953 314.431 161.521 314.436 162.136C314.431 162.922 314.218 163.623 313.797 164.239C313.38 164.849 312.8 165.33 312.057 165.68C311.318 166.026 310.464 166.199 309.493 166.199ZM309.493 164.636C310.151 164.636 310.719 164.53 311.197 164.317C311.676 164.104 312.045 163.803 312.305 163.415C312.566 163.027 312.698 162.572 312.703 162.051C312.698 161.502 312.556 161.017 312.277 160.595C311.998 160.174 311.616 159.842 311.134 159.601C310.655 159.359 310.108 159.239 309.493 159.239C308.873 159.239 308.319 159.359 307.831 159.601C307.348 159.842 306.967 160.174 306.688 160.595C306.413 161.017 306.278 161.502 306.283 162.051C306.278 162.572 306.403 163.027 306.659 163.415C306.92 163.803 307.291 164.104 307.774 164.317C308.257 164.53 308.83 164.636 309.493 164.636ZM309.493 157.733C310.014 157.733 310.475 157.629 310.878 157.42C311.285 157.212 311.605 156.921 311.837 156.547C312.069 156.173 312.187 155.735 312.192 155.233C312.187 154.741 312.071 154.312 311.844 153.947C311.616 153.578 311.302 153.294 310.899 153.095C310.497 152.892 310.028 152.79 309.493 152.79C308.948 152.79 308.473 152.892 308.065 153.095C307.658 153.294 307.343 153.578 307.121 153.947C306.898 154.312 306.789 154.741 306.794 155.233C306.789 155.735 306.901 156.173 307.128 156.547C307.36 156.921 307.679 157.212 308.087 157.42C308.494 157.629 308.963 157.733 309.493 157.733ZM28.5057 206V204.722L33.3068 199.466C33.8703 198.85 34.3343 198.315 34.6989 197.861C35.0634 197.402 35.3333 196.971 35.5085 196.568C35.6884 196.161 35.7784 195.735 35.7784 195.29C35.7784 194.778 35.6553 194.336 35.4091 193.962C35.1676 193.588 34.8362 193.299 34.4148 193.095C33.9934 192.892 33.5199 192.79 32.9943 192.79C32.4356 192.79 31.9479 192.906 31.5312 193.138C31.1193 193.365 30.7997 193.685 30.5724 194.097C30.3499 194.509 30.2386 194.991 30.2386 195.545H28.5625C28.5625 194.693 28.759 193.945 29.152 193.301C29.545 192.657 30.08 192.155 30.7571 191.795C31.4389 191.436 32.2036 191.256 33.0511 191.256C33.9034 191.256 34.6586 191.436 35.3168 191.795C35.9749 192.155 36.491 192.641 36.8651 193.251C37.2391 193.862 37.4261 194.542 37.4261 195.29C37.4261 195.825 37.3291 196.348 37.1349 196.859C36.9455 197.366 36.6141 197.932 36.1406 198.557C35.6719 199.177 35.0208 199.935 34.1875 200.83L30.9205 204.324V204.438H37.6818V206H28.5057ZM45.2457 191.256C45.8423 191.26 46.4389 191.374 47.0355 191.597C47.6321 191.819 48.1766 192.188 48.669 192.705C49.1615 193.216 49.5568 193.914 49.8551 194.8C50.1534 195.685 50.3026 196.795 50.3026 198.131C50.3026 199.423 50.1795 200.571 49.9332 201.575C49.6918 202.574 49.3414 203.417 48.8821 204.104C48.4276 204.79 47.8736 205.311 47.2202 205.666C46.5715 206.021 45.8376 206.199 45.0185 206.199C44.2041 206.199 43.4773 206.038 42.8381 205.716C42.2036 205.389 41.6828 204.937 41.2756 204.359C40.8731 203.777 40.6151 203.102 40.5014 202.335H42.2344C42.3906 203.003 42.7008 203.554 43.1648 203.99C43.6335 204.421 44.2514 204.636 45.0185 204.636C46.1406 204.636 47.026 204.146 47.6747 203.166C48.3281 202.186 48.6548 200.801 48.6548 199.011H48.5412C48.276 199.409 47.9612 199.752 47.5966 200.041C47.232 200.33 46.8272 200.553 46.3821 200.709C45.937 200.865 45.4635 200.943 44.9616 200.943C44.1283 200.943 43.3636 200.737 42.6676 200.325C41.9763 199.909 41.4223 199.338 41.0057 198.614C40.5938 197.884 40.3878 197.051 40.3878 196.114C40.3878 195.223 40.5866 194.409 40.9844 193.67C41.3868 192.927 41.9503 192.335 42.6747 191.895C43.4039 191.455 44.2609 191.241 45.2457 191.256ZM45.2457 192.818C44.6491 192.818 44.1117 192.967 43.6335 193.266C43.16 193.559 42.7836 193.957 42.5043 194.459C42.2296 194.956 42.0923 195.508 42.0923 196.114C42.0923 196.72 42.2249 197.271 42.4901 197.768C42.7599 198.261 43.1269 198.654 43.5909 198.947C44.0597 199.236 44.5923 199.381 45.1889 199.381C45.6387 199.381 46.0578 199.293 46.446 199.118C46.8343 198.938 47.1728 198.694 47.4616 198.386C47.7552 198.074 47.9848 197.721 48.1506 197.328C48.3163 196.93 48.3991 196.516 48.3991 196.085C48.3991 195.517 48.2618 194.984 47.9872 194.487C47.7173 193.99 47.3433 193.588 46.8651 193.28C46.3916 192.972 45.8518 192.818 45.2457 192.818ZM74.8853 206.199C73.9478 206.199 73.1121 206.038 72.3782 205.716C71.649 205.394 71.069 204.946 70.6381 204.374C70.212 203.796 69.98 203.126 69.9421 202.364H71.7319C71.7698 202.832 71.9308 203.237 72.2148 203.578C72.4989 203.914 72.8706 204.175 73.3299 204.359C73.7892 204.544 74.2982 204.636 74.8569 204.636C75.4819 204.636 76.0359 204.527 76.5188 204.31C77.0018 204.092 77.3806 203.789 77.6552 203.401C77.9298 203.012 78.0671 202.562 78.0671 202.051C78.0671 201.516 77.9345 201.045 77.6694 200.638C77.4042 200.226 77.016 199.904 76.5046 199.672C75.9933 199.44 75.3683 199.324 74.6296 199.324H73.4648V197.761H74.6296C75.2073 197.761 75.7139 197.657 76.1495 197.449C76.5898 197.241 76.9331 196.947 77.1793 196.568C77.4303 196.189 77.5558 195.744 77.5558 195.233C77.5558 194.741 77.4469 194.312 77.229 193.947C77.0112 193.583 76.7035 193.299 76.3058 193.095C75.9128 192.892 75.4487 192.79 74.9137 192.79C74.4118 192.79 73.9383 192.882 73.4933 193.067C73.0529 193.247 72.6931 193.509 72.4137 193.855C72.1344 194.196 71.9828 194.608 71.9592 195.091H70.2546C70.283 194.329 70.5127 193.661 70.9435 193.088C71.3744 192.51 71.9379 192.061 72.6339 191.739C73.3346 191.417 74.104 191.256 74.9421 191.256C75.8417 191.256 76.6135 191.438 77.2575 191.803C77.9014 192.162 78.3962 192.638 78.7418 193.23C79.0875 193.822 79.2603 194.461 79.2603 195.148C79.2603 195.967 79.0449 196.665 78.614 197.243C78.1879 197.821 77.6078 198.221 76.8739 198.443V198.557C77.7925 198.708 78.5098 199.099 79.0259 199.729C79.542 200.354 79.8001 201.128 79.8001 202.051C79.8001 202.842 79.5846 203.552 79.1538 204.182C78.7276 204.807 78.1452 205.299 77.4066 205.659C76.668 206.019 75.8275 206.199 74.8853 206.199ZM87.4492 206.199C86.3791 206.199 85.4677 205.908 84.7148 205.325C83.962 204.738 83.3867 203.888 82.989 202.776C82.5913 201.658 82.3924 200.309 82.3924 198.727C82.3924 197.155 82.5913 195.813 82.989 194.7C83.3915 193.583 83.9691 192.731 84.7219 192.143C85.4795 191.552 86.3886 191.256 87.4492 191.256C88.5098 191.256 89.4165 191.552 90.1694 192.143C90.927 192.731 91.5046 193.583 91.9023 194.7C92.3048 195.813 92.506 197.155 92.506 198.727C92.506 200.309 92.3072 201.658 91.9094 202.776C91.5117 203.888 90.9364 204.738 90.1836 205.325C89.4308 205.908 88.5193 206.199 87.4492 206.199ZM87.4492 204.636C88.5098 204.636 89.3337 204.125 89.9208 203.102C90.5079 202.08 90.8015 200.621 90.8015 198.727C90.8015 197.468 90.6665 196.395 90.3967 195.51C90.1315 194.625 89.748 193.95 89.2461 193.486C88.7489 193.022 88.15 192.79 87.4492 192.79C86.3981 192.79 85.5766 193.308 84.9847 194.345C84.3929 195.377 84.0969 196.838 84.0969 198.727C84.0969 199.987 84.2295 201.057 84.4947 201.938C84.7598 202.818 85.141 203.488 85.6381 203.947C86.14 204.407 86.7437 204.636 87.4492 204.636Z" fill="#33574B"/>
</svg>
